<svg width="111" height="79" viewBox="0 0 111 79" fill="none" xmlns="http://www.w3.org/2000/svg">
<path d="M69.0931 2.27514C58.9072 -1.79336 43.7987 -0.292432 32.6898 5.87121C28.7726 8.09173 27.8607 8.19589 24.2133 6.41484C19.4882 4.15751 9.34357 2.4318 5.10528 3.25304C1.15715 3.99119 -1.08147 8.24262 0.524399 11.9426C1.87126 15.0103 8.9274 22.9575 14.2222 27.4848C16.5743 29.4013 17.4964 31.2564 17.7966 35.3302C20.4264 62.6753 44.818 80.4924 70.2375 73.6057C78.5484 71.3828 78.6934 71.3413 86.952 74.7059C100.568 80.0683 109.448 79.0165 110.04 72.0189C110.372 67.6856 105.678 61.4164 99.2017 57.6984C94.2177 54.8088 93.855 54.3633 94.6324 51.8646C99.2138 36.582 93.8682 18.962 81.89 9.99119C79.8591 8.37513 77.362 6.50016 76.388 5.83724C75.4658 5.08099 72.1914 3.50707 69.0931 2.27514ZM81.9931 17.4964C86.6868 22.6667 90.8204 35.2182 90.3016 42.7445C90.0112 46.1241 88.871 50.3749 87.5237 52.8014C84.7255 57.841 80.0205 62.7986 77.8651 62.9449C75.7616 62.9979 58.1671 52.4959 43.4222 42.3551C22.8437 27.9984 23.0198 28.3404 27.7354 19.8478C34.161 8.27542 47.7052 2.12083 59.9429 5.13084C67.269 6.8788 77.662 12.7717 81.9931 17.4964ZM22.658 18.0053C19.7561 23.2315 19.3623 23.5013 17.4971 22.4656C14.9792 21.0675 8.76228 14.6852 6.70041 11.5868C5.9855 10.4572 5.85089 9.16148 6.53484 8.80866C8.49342 7.69839 19.6122 8.98819 22.7829 10.7488L25.7671 12.4058L22.658 18.0053ZM102.019 67.5657C103.47 69.3479 104.154 71.1928 103.605 71.7425C101.864 73.3398 96.3094 72.5757 90.0818 69.7283L84.2687 67.2332L86.3311 64.8374C91.0982 59.548 90.9531 59.5895 95.3362 62.0233C97.6676 63.3178 100.662 65.8352 102.019 67.5657ZM50.4263 53.6922C60.9643 60.6424 69.7304 66.6087 69.8547 67.044C70.2794 68.2566 63.5127 69.017 56.7979 68.5853C47.42 67.8958 37.1203 62.0547 31.2558 54.1587C27.3807 48.8324 23.3298 38.7688 24.3662 36.9023C24.6253 36.4357 26.2625 37.2227 28.0655 38.5901C29.7752 39.9057 39.8883 46.742 50.4263 53.6922Z" fill="black"/>
</svg>
